PathFileType	4	(X/Y/Z)	C:\Users\WrightLab\Desktop\Jo\P4V131.trc
DataRate	CameraRate	NumFrames	NumMarkers	Units	OrigDataRate	OrigDataStartFrame	OrigNumFrames
100.00	100.00	       57	19	mm	100.00	1	       497
Frame#	Time	Headset_Front			Headset_Back			Headset_Left			Headset_Right			Left_Shoulder			Right_Shoulder			Sternum			C7			Left Elbow			Right Elbow			Left Wrist			Right Wrist			Left ASIS			Right ASIS			S2			Left Knee			Right Knee			Left Ankle			Right Ankle			
		X1	Y1	Z1	X2	Y2	Z2	X3	Y3	Z3	X4	Y4	Z4	X5	Y5	Z5	X6	Y6	Z6	X7	Y7	Z7	X8	Y8	Z8	X9	Y9	Z9	X10	Y10	Z10	X11	Y11	Z11	X12	Y12	Z12	X13	Y13	Z13	X14	Y14	Z14	X15	Y15	Z15	X16	Y16	Z16	X17	Y17	Z17	X18	Y18	Z18	X19	Y19	Z19	

1	0.000																															162.53903	853.63440	-1459.12268				88.13592	995.18475	-1520.52893	-243.68405	1006.61914	-1561.37085				88.31613	505.68155	-1579.73401										
2	0.010																															160.92212	853.14148	-1456.38098				86.15199	993.71063	-1517.02502	-244.58974	1006.80109	-1561.87781				88.14894	504.95944	-1581.34265										
3	0.020																															158.78682	853.04803	-1454.32092				85.13184	993.71765	-1514.70520	-245.83978	1007.87573	-1560.24329				87.28462	504.37735	-1581.41833										
4	0.030																															156.20982	853.04114	-1451.85547				83.21980	992.93164	-1510.69836	-247.40530	1008.29541	-1556.40393				85.59014	504.95111	-1579.13245										
5	0.040																															154.31587	852.82391	-1448.79358				82.16710	992.11334	-1508.54419	-248.91660	1009.12891	-1553.73914				83.62894	504.06116	-1579.33936										
6	0.050																															151.81407	852.84039	-1445.69604				79.93771	992.56122	-1504.06250	-249.35800	1008.45844	-1556.62402				82.36465	503.30313	-1582.63928										
7	0.060																															149.66241	852.61896	-1442.27380				78.34035	992.48572	-1501.36523	-251.78111	1008.37018	-1555.15002				80.40374	503.13440	-1581.13806										
8	0.070																															147.66986	851.69653	-1437.64063				76.31062	992.06421	-1500.06726	-253.15207	1006.88367	-1558.57605				79.30519	502.91522	-1580.66956										
9	0.080																															144.93170	851.49341	-1434.03735				73.31280	992.02899	-1496.96545	-255.57965	1008.10675	-1556.42920				77.17042	504.40482	-1576.19482										
10	0.090																															142.37236	851.73462	-1431.09082				70.23384	991.14569	-1493.77673	-257.40259	1007.73920	-1551.60217				76.20591	504.50214	-1574.44141										
11	0.100																															139.22441	850.89801	-1426.63831				69.28356	989.61755	-1494.86255	-258.35233	1008.08978	-1549.42139				75.67564	503.60721	-1574.81482										
12	0.110																															136.49065	851.00842	-1423.09131				67.03490	988.82617	-1489.99585	-259.46619	1008.14398	-1548.29626				74.91544	502.49365	-1574.70703										
13	0.120																															133.39296	851.19409	-1419.18164				64.84560	988.44470	-1484.62341	-262.07571	1008.41846	-1545.13733				72.61762	503.56345	-1570.09521										
14	0.130																															131.09096	850.13690	-1413.44263				64.07234	987.97382	-1484.09460	-264.37711	1007.93054	-1545.64539				70.05806	505.06342	-1567.17529										
15	0.140																															127.60292	849.15839	-1407.43384				60.38896	988.83624	-1475.91113	-267.35840	1007.63538	-1542.38403				69.03522	504.63971	-1568.85913										
16	0.150																															125.16718	849.17627	-1402.98645				58.20706	987.45447	-1476.06897	-267.80368	1006.84760	-1545.21643				67.70760	502.30634	-1569.44910										
17	0.160																															121.76938	849.47052	-1399.13953				55.12295	986.50623	-1473.87683	-270.56271	1006.18878	-1539.27795				65.55811	502.50381	-1566.62390										
18	0.170																															118.54061	848.31421	-1392.96301				52.10681	985.71820	-1470.26233	-271.61993	1006.30994	-1537.81018				63.54357	501.99951	-1562.99353										
19	0.180																															114.71890	848.04474	-1387.89819				50.12428	984.33905	-1467.04785	-275.41418	1007.86694	-1528.15076				62.42213	501.08936	-1561.16797										
20	0.190																															111.28231	847.28223	-1381.58557				46.97120	984.67920	-1459.25928	-278.33521	1005.46600	-1529.69275				60.16393	501.95273	-1556.27722										
21	0.200																															108.14169	847.27576	-1376.13501				44.09086	984.30975	-1453.51929	-281.25903	1004.45660	-1528.06860				58.48831	501.89261	-1553.84460										
22	0.210																															104.58523	846.81104	-1369.98950				41.18433	982.21497	-1450.30371	-283.39453	1004.38892	-1525.01062				55.05738	503.44363	-1546.95886										
23	0.220																															101.01003	845.39215	-1362.12500				37.14172	981.27454	-1447.53577	-285.46933	1003.41376	-1521.91089				53.26709	501.23856	-1549.77942										
24	0.230																															97.06030	845.74506	-1357.60840				33.32746	980.75647	-1442.76221	-291.37067	1003.64722	-1514.65820				49.95889	499.91443	-1547.77637										
25	0.240																															92.78207	845.05127	-1350.74377				29.91536	979.69629	-1435.55066	-295.07791	1002.41553	-1511.34375				47.87405	498.74792	-1545.22876										
26	0.250																															89.77077	844.31927	-1343.66187				27.76989	978.52502	-1432.02783	-296.35269	1000.43292	-1510.46606				44.89846	498.93488	-1538.27759										
27	0.260																															85.27647	841.77014	-1340.24329				23.24347	977.53552	-1423.52478	-301.61145	1000.46179	-1503.60608				43.70773	497.97437	-1537.17371										
28	0.270																															81.60126	843.71338	-1329.94153				18.21339	975.78418	-1420.54211	-304.84885	999.20398	-1500.01611				39.88467	498.98395	-1529.14771										
29	0.280																															76.71331	842.31171	-1321.64136				14.38168	974.29913	-1416.42285	-308.48792	997.01221	-1495.62561				36.91894	498.00409	-1528.51880	-403.79913	550.58850	-1421.03601							
30	0.290																															69.87309	840.69989	-1320.41699				10.77468	975.00232	-1408.43933	-312.41849	996.53687	-1493.24805				33.71496	495.82501	-1527.04529	-408.88235	547.84692	-1421.14954							
31	0.300																															68.60069	841.49292	-1307.48181				5.53024	972.71509	-1399.27515	-316.11777	994.97479	-1488.88928				30.69379	496.36649	-1521.64490	-414.36005	548.08618	-1412.76416							
32	0.310																															63.68107	840.07129	-1299.82312				1.17939	969.84027	-1400.39575	-318.12262	992.53888	-1485.82983				28.34571	495.80988	-1517.22949	-419.01001	548.83301	-1402.02759							
33	0.320																															58.68956	839.04413	-1292.55103				-2.03964	967.83740	-1395.91577	-323.00970	991.46045	-1481.58459				25.31903	494.51620	-1511.21118	-425.40155	548.90491	-1397.29932							
34	0.330																															53.24766	839.12238	-1285.41345				-7.31878	967.23267	-1384.11755	-327.52637	990.88251	-1471.88135				21.28067	494.33890	-1505.32617	-430.44934	547.27679	-1391.10034							
35	0.340																															48.44315	837.37329	-1277.15356				-13.51983	966.13953	-1380.23914	-331.91748	988.50427	-1468.80225				18.33754	490.54083	-1507.61475	-436.69553	547.14270	-1385.01270							
36	0.350																															43.24901	836.52191	-1269.40979				-18.86963	963.69574	-1372.36194	-336.53769	985.81848	-1468.37207				14.25592	490.62653	-1502.22192	-442.29172	545.72375	-1379.20044							
37	0.360																									110.72923	1123.26257	-1357.76086				35.29976	835.77490	-1262.64795				-23.24052	962.91492	-1364.33228	-341.39224	985.34937	-1455.73560				10.84283	490.96741	-1495.63391	-449.27249	545.02368	-1372.17004							
38	0.370																									104.95551	1122.30859	-1350.89075				30.02586	833.78918	-1254.86951				-29.61959	960.39136	-1361.83691	-347.84015	983.90930	-1453.88318				7.29947	490.56387	-1490.57202	-454.84457	544.13232	-1366.04016							
39	0.380																									99.73829	1121.21399	-1342.58667				24.70373	833.04657	-1247.07312				-35.47038	958.60168	-1352.77209	-352.62552	981.57379	-1447.42273				3.61418	489.28021	-1491.19348	-461.60739	543.49231	-1358.49561							
40	0.390																									93.66801	1119.75659	-1334.41333				19.17980	831.34808	-1237.24597				-41.39445	957.82971	-1346.01843	-358.94678	979.95929	-1439.35901				0.39329	487.29733	-1490.03723	-468.53235	542.29840	-1351.71643							
41	0.400																									87.29096	1119.58447	-1328.25122				15.30614	830.91064	-1229.81860				-48.20542	954.94049	-1340.74915	-364.76978	978.26233	-1436.50757				-4.98465	489.33679	-1477.41565	-476.44678	541.74023	-1343.82886							
42	0.410																									81.56802	1117.97339	-1318.62463				6.34612	829.64282	-1220.59033				-54.44532	954.10626	-1330.08557	-371.43774	976.03491	-1426.82898				-7.48381	488.01266	-1476.39465	-482.26715	541.18744	-1335.52246							
43	0.420																									74.82409	1116.82874	-1310.50476				2.82975	828.32104	-1214.00061				-61.40582	952.62305	-1328.15869	-377.87448	973.70520	-1422.86047				-11.86614	486.24084	-1476.76233	-488.47354	539.47223	-1329.18164							
44	0.430																									68.39107	1116.14233	-1302.45288				-4.07568	827.30365	-1205.39526				-67.53189	950.28735	-1322.13135	-385.09186	972.20831	-1415.58911				-17.36327	488.90631	-1465.57886	-494.65369	538.68878	-1321.17944							
45	0.440																									61.59594	1114.80273	-1293.73120				-9.83934	826.45544	-1197.35071				-75.15178	950.32074	-1315.55042	-391.26959	971.72205	-1408.61609				-20.32712	489.17145	-1460.20679	-500.54453	537.45416	-1313.24036							
46	0.450																									55.15436	1115.35071	-1288.11426				-16.65098	826.27667	-1189.79480				-84.32529	949.15778	-1306.57422	-398.95499	969.50140	-1406.81702				-24.86166	488.57349	-1456.90186	-506.04657	536.26654	-1306.10266							
47	0.460																									47.91461	1114.27844	-1278.87976				-22.97660	824.79395	-1180.71277				-90.71241	949.44257	-1297.46826	-406.20648	971.61627	-1392.56995				-30.53415	487.07089	-1453.43384	-512.32159	535.25549	-1299.28821							
48	0.470																									40.58947	1114.90564	-1272.53857				-28.96720	825.35120	-1172.42615				-100.53311	948.52850	-1290.69629	-414.52960	971.25098	-1387.08240				-36.24300	491.11069	-1440.83984	-519.49298	535.17047	-1293.50293							
49	0.480																									33.48536	1114.11584	-1262.85034				-35.71798	825.31879	-1164.77026				-108.48061	946.67712	-1284.77393	-422.22101	971.55469	-1385.43262				-43.37468	491.88794	-1434.29053	-527.29498	535.31140	-1286.88159							
50	0.490																									26.50192	1114.99182	-1255.89075				-41.79747	825.89716	-1156.29395				-117.29311	949.47467	-1271.63782	-430.18842	974.14893	-1373.85571				-48.67392	489.25677	-1430.11377	-534.28986	534.59222	-1281.75708							
51	0.500																									18.62594	1116.48645	-1249.52441				-49.51497	826.63678	-1147.11975				-125.85528	946.31781	-1270.28943	-439.14432	975.35693	-1364.48352				-56.86880	493.10803	-1411.52478	-539.91174	534.90491	-1276.09216							
52	0.510																									11.01312	1117.09802	-1240.84778				-56.04249	827.61194	-1139.67444				-137.21866	947.34454	-1260.49963	-448.34241	976.29358	-1359.75574				-63.57085	490.29269	-1409.18872	-547.52893	535.52313	-1271.03723							
53	0.520																									3.84247	1118.15698	-1233.36780				-63.07817	829.08032	-1131.83081				-146.05400	949.11890	-1247.92603	-456.90985	976.47876	-1358.12903				-71.13986	492.06467	-1391.05273	-554.70581	535.48529	-1266.43225							
54	0.530																									-4.20665	1120.05847	-1226.28528				-70.37512	830.00775	-1121.64893				-154.52457	949.93774	-1240.93396	-464.88092	979.27441	-1345.55664				-80.02502	491.19022	-1377.18896	-562.64087	534.61133	-1263.01575							
55	0.540																									-11.52325	1121.55005	-1219.02869				-77.89249	832.70844	-1115.55176				-164.58511	949.22931	-1233.69116	-473.93945	981.46960	-1338.92542				-88.52084	490.60303	-1363.45593	-569.91113	534.35974	-1260.45605							
56	0.550																									-19.63309	1123.42322	-1211.78528				-84.64029	833.80786	-1106.82129				-174.97011	950.45319	-1226.93164	-482.66147	982.92285	-1332.18164				-97.03825	490.16068	-1344.10779	-574.78986	533.73511	-1257.71692							
57	0.560																									-27.08184	1125.16187	-1203.81592				-91.85675	836.84760	-1099.86792				-182.85464	951.07074	-1217.54407	-491.20621	984.20630	-1326.84778				-107.13297	487.06146	-1334.78870	-578.69714	532.05884	-1255.60535							
